<svg height="512pt" viewBox="0 -40 512 512" width="512pt" xmlns="http://www.w3.org/2000/svg"><path d="m512 238.640625c0-9.882813-8.039062-17.921875-17.925781-17.921875h-33.613281c-9.882813 0-17.921876 8.039062-17.921876 17.921875v109.3125h-7.800781v-166.34375c0-10.546875-5.746093-20.226563-15-25.257813-6.09375-3.3125-15.46875-8-27.65625-12.894531.21875-.449219.429688-.898437.628907-1.355469 3.765624-8.683593 3.613281-17.664062-.429688-25.28125-1.144531-2.160156-2.566406-4.113281-4.210938-5.855468v-48.941406l75.296876-14.828126v44.953126c-8.742188-2.070313-18.875-.886719-28.167969 4.042968-18.042969 9.574219-26.191407 29.679688-18.160157 44.816406 8.789063 16.566407 32.609376 17.875 47.292969 10.082032 18.046875-9.574219 26.191407-29.679688 18.160157-44.816406-1.140626-2.152344-2.558594-4.085938-4.191407-5.800782v-56.222656l1.292969-.253906c3.5-.6875 6.023438-3.757813 6.023438-7.324219v-25.105469c0-3.472656-1.539063-6.726562-4.21875-8.933594-2.679688-2.203124-6.171876-3.082031-9.578126-2.414062l-96.835937 19.074219c-5.40625 1.0625-9.328125 5.835937-9.328125 11.34375v26.71875c0 2.234375 1 4.347656 2.726562 5.769531 1.347657 1.105469 3.027344 1.699219 4.742188 1.699219h.007812v37.804687c-.511718-.121094-1.023437-.234375-1.542968-.332031-8.6875-1.632813-18.128906-.054687-26.597656 4.441406-15.417969 8.179688-27.265626 27.65625-18.164063 44.816407 4.042969 7.617187 11.394531 12.773437 20.699219 14.523437 9.109375 1.605469 17.976562.125 26.59375-4.441406 3.101562-1.644531 5.945312-3.617188 8.484375-5.855469 13.453125 5.179688 23.636719 10.234375 30.003906 13.695312 4.4375 2.414063 7.195313 7.0625 7.195313 12.132813v8.476563h-187.78125v-32.191407c0-4.125-3.34375-7.46875-7.46875-7.46875s-7.464844 3.34375-7.464844 7.46875v32.191407h-125.707032v-8.40625c0-5.09375 2.777344-9.757813 7.25-12.164063 20.171876-10.859375 75.882813-36.109375 157.382813-36.109375 12.65625 0 25.324219.609375 37.648437 1.816406 4.117188.40625 7.761719-2.601562 8.160157-6.707031.402343-4.105469-2.601563-7.757813-6.707031-8.160156-12.808594-1.25-25.964844-1.882813-39.101563-1.882813-84.898437 0-143.292969 26.5-164.460937 37.890625-9.320313 5.015625-15.109376 14.71875-15.109376 25.316407v166.273437h-6.984374v-109.3125c0-9.882813-8.039063-17.921875-17.925782-17.921875h-33.613281c-9.882813 0-17.921875 8.039062-17.921875 17.921875v175.910156c0 10.222657 8.316406 18.539063 18.535156 18.539063h474.925782c10.222656 0 18.539062-8.316406 18.539062-18.539063zm-54.664062-100.746094c-10.589844 5.621094-23 3.835938-27.101563-3.890625-4.097656-7.726562 1.382813-19 11.96875-24.621094 4.183594-2.21875 8.648437-3.28125 12.773437-3.28125 6.324219 0 11.847657 2.5 14.328126 7.171876 4.097656 7.730468-1.382813 19.003906-11.96875 24.621093zm-76.742188-104.484375 90.089844-17.742187v14.859375l-90.089844 17.746094zm-30.308594 117.984375c-4.746094-.890625-8.390625-3.320312-10.261718-6.84375-1.867188-3.523437-1.839844-7.902343.085937-12.332031 2.171875-5.011719 6.394531-9.375 11.882813-12.289062 5.453124-2.964844 11.066406-3.949219 16.839843-2.953126 4.746094.890626 8.390625 3.324219 10.257813 6.84375 1.871094 3.523438 1.839844 7.902344-.082032 12.332032-2.171874 5.011718-6.394531 9.375-11.886718 12.289062-5.488282 2.914063-11.46875 3.964844-16.835938 2.953125zm107.191406 87.246094c0-1.644531 1.339844-2.984375 2.988282-2.984375h33.613281c1.644531 0 2.984375 1.339844 2.984375 2.984375v109.3125h-39.585938zm-71.9375 109.3125v-142.929687h34.265626v142.929687zm-294.15625-142.929687h34.265626v142.929687h-34.265626zm405.679688 209.527343c0 1.988281-1.613281 3.601563-3.601562 3.601563h-474.925782c-1.984375 0-3.597656-1.617188-3.597656-3.601563v-59.128906c0-.289063-.023438-.570313-.050781-.847656.027343-.28125.050781-.5625.050781-.847657v-115.085937c0-1.644531 1.339844-2.984375 2.984375-2.984375h33.613281c1.648438 0 2.988282 1.339844 2.988282 2.984375v109.3125h-11.828126c-4.125 0-7.46875 3.34375-7.46875 7.46875s3.34375 7.46875 7.46875 7.46875h128.535157c4.125 0 7.464843-3.34375 7.464843-7.46875s-3.339843-7.46875-7.464843-7.46875h-30.648438v-142.929687h76.503907v24.007812c-8.738282-2.070312-18.871094-.886719-28.164063 4.042969-15.414063 8.179687-27.265625 27.65625-18.160156 44.816406 4.042969 7.617187 11.390625 12.777344 20.695312 14.523437 9.113281 1.605469 17.976563.128907 26.597657-4.441406 18.046874-9.574218 26.191406-29.679687 18.164062-44.816406-1.144531-2.152344-2.5625-4.085938-4.195312-5.800781v-32.332031h138.578124v142.929687h-163.523437c-4.125 0-7.46875 3.34375-7.46875 7.46875s3.34375 7.46875 7.46875 7.46875h289.984375zm-286.007812-139.773437c-5.492188 2.914062-11.46875 3.964844-16.839844 2.957031-4.746094-.894531-8.390625-3.324219-10.257813-6.847656-1.871093-3.519531-1.839843-7.902344.082031-12.332031 2.175782-5.007813 6.394532-9.375 11.886719-12.289063 4.179688-2.21875 8.644531-3.28125 12.773438-3.28125 6.320312 0 11.84375 2.5 14.324219 7.171875 4.097656 7.730469-1.382813 19.003906-11.96875 24.621094zm0 0"/><path d="m487.464844 268.953125c0 5.628906-4.566406 10.191406-10.195313 10.191406-5.628906 0-10.195312-4.5625-10.195312-10.191406 0-5.632813 4.566406-10.195313 10.195312-10.195313 5.628907 0 10.195313 4.5625 10.195313 10.195313zm0 0"/><path d="m487.464844 309.351562c0 5.632813-4.566406 10.195313-10.195313 10.195313-5.628906 0-10.191406-4.5625-10.191406-10.195313 0-5.628906 4.5625-10.191406 10.191406-10.191406 5.628907 0 10.195313 4.5625 10.195313 10.191406zm0 0"/><path d="m44.925781 268.953125c0 5.628906-4.566406 10.191406-10.195312 10.191406-5.628907 0-10.195313-4.5625-10.195313-10.191406 0-5.632813 4.566406-10.195313 10.195313-10.195313 5.628906 0 10.195312 4.5625 10.195312 10.195313zm0 0"/><path d="m44.921875 309.351562c0 5.632813-4.5625 10.195313-10.191406 10.195313-5.628907 0-10.195313-4.5625-10.195313-10.195313 0-5.628906 4.566406-10.191406 10.195313-10.191406 5.628906 0 10.191406 4.5625 10.191406 10.191406zm0 0"/></svg>